<svg width="40" height="40" viewBox="0 0 24 24" fill="none" xmlns="http://www.w3.org/2000/svg">
<path d="M3.63694 3.43399L12.3769 12.005L3.70194 20.655C3.56037 20.4699 3.45023 20.2628 3.37594 20.042C3.33693 19.7918 3.33693 19.5371 3.37594 19.287V4.56699C3.34994 4.17199 3.44094 3.77699 3.63594 3.43399M16.1419 8.26699L13.2889 11.093L4.65294 2.59999C4.93294 2.50299 5.23294 2.47599 5.52594 2.52199C5.98594 2.64799 6.42494 2.84199 6.82794 3.09499L14.6439 7.41999C15.1519 7.69299 15.6469 7.97999 16.1419 8.26699ZM13.2899 12.93L16.1289 15.718L14.0709 16.864L7.79194 20.354C7.27194 20.641 6.74994 20.915 6.24194 21.228C6.02462 21.3634 5.78087 21.4509 5.52701 21.4845C5.27315 21.5182 5.01503 21.4972 4.76994 21.423L13.2899 12.93ZM20.6499 12.005C20.6578 12.3548 20.5697 12.7 20.3951 13.0032C20.2206 13.3065 19.9663 13.5561 19.6599 13.725L17.3139 15.027L14.2269 12.005L17.3269 8.93099C18.1219 9.37399 18.9039 9.81699 19.6849 10.234C19.9966 10.4079 20.2525 10.6666 20.4232 10.98C20.5938 11.2935 20.6731 11.6489 20.6499 12.005Z" fill="white"/>
</svg>
