<svg width="15" height="15" viewBox="0 0 15 15" fill="none" xmlns="http://www.w3.org/2000/svg">
<path fill-rule="evenodd" clip-rule="evenodd" d="M11 3.5V6H12.5C12.8978 6 13.2794 6.15804 13.5607 6.43934C13.842 6.72064 14 7.10218 14 7.5V13.5C14 13.8978 13.842 14.2794 13.5607 14.5607C13.2794 14.842 12.8978 15 12.5 15H2.5C2.10218 15 1.72064 14.842 1.43934 14.5607C1.15804 14.2794 1 13.8978 1 13.5V7.5C1 7.10218 1.15804 6.72064 1.43934 6.43934C1.72064 6.15804 2.10218 6 2.5 6H4V3.5C4 2.57174 4.36875 1.6815 5.02513 1.02513C5.6815 0.368749 6.57174 0 7.5 0C8.42826 0 9.3185 0.368749 9.97487 1.02513C10.6313 1.6815 11 2.57174 11 3.5ZM5 3.5C5 2.83696 5.26339 2.20107 5.73223 1.73223C6.20107 1.26339 6.83696 1 7.5 1C8.16304 1 8.79893 1.26339 9.26777 1.73223C9.73661 2.20107 10 2.83696 10 3.5V6H5V3.5Z" fill="black"/>
</svg>
