<svg width="28" height="28" viewBox="0 0 28 28" fill="none" xmlns="http://www.w3.org/2000/svg">
<path d="M14 19C13.6085 19.0002 13.2255 18.8854 12.8986 18.67C12.5717 18.4545 12.3153 18.1479 12.161 17.788C11.8383 17.7118 11.5207 17.6156 11.21 17.5L11.193 17.494C10.2806 17.1516 9.43842 16.6452 8.708 16C7.72939 15.1367 6.97682 14.0472 6.51591 12.8263C6.055 11.6054 5.89974 10.2904 6.06368 8.99574C6.22761 7.70111 6.70576 6.46624 7.45644 5.39879C8.20711 4.33135 9.20751 3.46375 10.3704 2.87164C11.5333 2.27953 12.8234 1.98089 14.1282 2.00176C15.433 2.02262 16.7129 2.36236 17.8563 2.99135C18.9997 3.62035 19.9718 4.51949 20.688 5.61039C21.4041 6.70129 21.8425 7.95082 21.965 9.25003C22.004 9.66303 21.665 10 21.25 10C20.836 10 20.505 9.66303 20.457 9.25103C20.3248 8.11432 19.8948 7.03266 19.2106 6.11539C18.5263 5.19812 17.6121 4.47775 16.5602 4.02711C15.5082 3.57647 14.356 3.41153 13.2199 3.54896C12.0838 3.68639 11.0042 4.12132 10.09 4.80978C9.17594 5.49825 8.45979 6.41584 8.01399 7.46981C7.5682 8.52378 7.40856 9.67676 7.55122 10.8122C7.69388 11.9477 8.13377 13.0253 8.82644 13.9362C9.51911 14.8472 10.44 15.5591 11.496 16L11.536 16.017C11.736 16.099 11.9413 16.1714 12.152 16.234C12.3446 15.7647 12.7085 15.386 13.1698 15.1749C13.6311 14.9637 14.1555 14.9357 14.6366 15.0967C15.1178 15.2576 15.5198 15.5954 15.7613 16.0417C16.0027 16.4879 16.0655 17.0092 15.937 17.5C15.8261 17.9294 15.5757 18.3098 15.2251 18.5813C14.8744 18.8529 14.4435 19.0001 14 19ZM7 17.5H8.169C7.60991 17.0643 7.10081 16.5679 6.651 16.02C5.92071 16.1056 5.24727 16.4563 4.75856 17.0057C4.26985 17.555 3.99991 18.2647 4 19V19.715C4 23.433 8.21 26 14 26C19.79 26 24 23.292 24 19.715V19C24 18.2044 23.6839 17.4413 23.1213 16.8787C22.5587 16.3161 21.7956 16 21 16H17.355C17.4999 16.4862 17.5375 16.998 17.465 17.5H21L21.145 17.507C21.516 17.5431 21.8603 17.7159 22.1108 17.9919C22.3612 18.2679 22.5 18.6273 22.5 19V19.715L22.495 19.876C22.355 22.396 18.926 24.5 14 24.5C8.889 24.5 5.5 22.389 5.5 19.715V19L5.507 18.855C5.54303 18.484 5.71589 18.1398 5.99189 17.8893C6.2679 17.6388 6.62727 17.5 7 17.5ZM19 10C19.0002 10.9058 18.7543 11.7946 18.2886 12.5715C17.8229 13.3484 17.1549 13.9842 16.356 14.411C15.7114 13.8247 14.8714 13.4998 14 13.5C14.4596 13.5 14.9148 13.4095 15.3394 13.2336C15.764 13.0577 16.1499 12.7999 16.4749 12.4749C16.7999 12.1499 17.0577 11.7641 17.2336 11.3394C17.4095 10.9148 17.5 10.4597 17.5 10C17.5 9.5404 17.4095 9.08528 17.2336 8.66064C17.0577 8.236 16.7999 7.85016 16.4749 7.52516C16.1499 7.20015 15.764 6.94234 15.3394 6.76645C14.9148 6.59056 14.4596 6.50003 14 6.50003C13.0717 6.50003 12.1815 6.86878 11.5251 7.52516C10.8687 8.18153 10.5 9.07177 10.5 10C10.5 10.9283 10.8687 11.8185 11.5251 12.4749C12.1815 13.1313 13.0717 13.5 14 13.5C13.092 13.5 12.266 13.846 11.645 14.412C10.8465 13.9856 10.1787 13.3503 9.713 12.574C9.31646 11.9134 9.07797 11.1701 9.01613 10.4021C8.95429 9.63406 9.07078 8.86215 9.35651 8.14659C9.64224 7.43103 10.0895 6.79119 10.6633 6.27701C11.2371 5.76282 11.922 5.38822 12.6645 5.18242C13.407 4.97663 14.1871 4.94522 14.9437 5.09064C15.7004 5.23607 16.4132 5.55439 17.0265 6.02077C17.6398 6.48715 18.137 7.08896 18.4794 7.77922C18.8217 8.46949 18.9999 9.22953 19 10Z" fill="black"/>
</svg>
