<svg width="30" height="30" viewBox="0 0 24 24" fill="none" xmlns="http://www.w3.org/2000/svg">
<g clip-path="url(#clip0_228_179)">
<path d="M15.718 5.49199C15.1434 5.49199 14.609 5.57999 14.115 5.75599C13.621 5.93199 13.171 6.10633 12.765 6.27899C12.359 6.45166 12.0067 6.53766 11.708 6.53699C11.3947 6.53699 11.0464 6.45466 10.663 6.28999C10.2559 6.11597 9.84412 5.95324 9.42804 5.80199C8.97648 5.63955 8.49991 5.55764 8.02004 5.55999C7.07804 5.55999 6.1707 5.81666 5.29803 6.32999C4.4247 6.84199 3.70837 7.59999 3.14903 8.60399C2.59037 9.60733 2.31104 10.8443 2.31104 12.315C2.31104 13.2343 2.41804 14.1533 2.63204 15.072C2.8467 15.992 3.13403 16.8613 3.49404 17.68C3.85404 18.5 4.25237 19.224 4.68904 19.852C5.2557 20.64 5.80904 21.3177 6.34904 21.885C6.88904 22.4517 7.51504 22.735 8.22704 22.735C8.6937 22.735 9.0997 22.6583 9.44503 22.505C9.7897 22.3517 10.1554 22.1967 10.542 22.04C10.9287 21.8833 11.4134 21.805 11.996 21.805C12.44 21.805 12.8114 21.8507 13.11 21.942C13.4087 22.0347 13.6824 22.14 13.931 22.258C14.181 22.3773 14.4434 22.4827 14.718 22.574C14.994 22.666 15.3274 22.712 15.718 22.712C16.2314 22.712 16.6927 22.576 17.102 22.304C17.5127 22.0327 17.892 21.6827 18.24 21.254C18.588 20.824 18.927 20.3757 19.257 19.909C19.617 19.3803 19.9097 18.873 20.135 18.387C20.3989 17.8349 20.6235 17.2648 20.807 16.681C20.7844 16.673 20.6177 16.5867 20.307 16.422C19.9964 16.2573 19.6444 15.995 19.251 15.635C18.8557 15.275 18.511 14.804 18.217 14.222C17.9217 13.64 17.774 12.9277 17.774 12.085C17.774 11.3497 17.8907 10.716 18.124 10.184C18.358 9.65066 18.632 9.21033 18.946 8.86299C19.26 8.51433 19.5417 8.24799 19.791 8.06399C20.0397 7.87999 20.183 7.77666 20.221 7.75399C19.8384 7.20266 19.421 6.77366 18.969 6.46699C18.5593 6.18224 18.1107 5.95794 17.637 5.80099C17.2576 5.67603 16.8667 5.58926 16.47 5.54199C16.2203 5.51319 15.9694 5.49717 15.718 5.49199ZM14.914 3.62899C15.2667 3.20833 15.5537 2.72033 15.775 2.16499C15.9949 1.61891 16.108 1.03569 16.108 0.446993C16.108 0.278326 16.0967 0.128993 16.074 -0.00100708C15.5 0.0216596 14.9007 0.193993 14.276 0.515993C13.6865 0.81213 13.1614 1.222 12.731 1.72199C12.3731 2.13568 12.0788 2.60047 11.858 3.10099C11.608 3.63286 11.4783 4.21329 11.478 4.80099C11.4763 4.94036 11.4918 5.0794 11.524 5.21499C11.624 5.23766 11.7274 5.24899 11.834 5.24899C12.348 5.24899 12.894 5.09566 13.472 4.78899C14.0248 4.50172 14.515 4.10741 14.914 3.62899Z" fill="white"/>
</g>
<defs>
<clipPath id="clip0_228_179">
<rect width="24" height="24" fill="black"/>
</clipPath>
</defs>
</svg>
