<svg width="16" height="15" viewBox="0 0 16 15" fill="none" xmlns="http://www.w3.org/2000/svg">
<path d="M1.59998 8.5H5.86664C6.14954 8.5 6.42085 8.60536 6.62089 8.79289C6.82093 8.98043 6.93331 9.23478 6.93331 9.5L6.93331 12.5C6.93331 12.7652 6.82093 13.0196 6.62089 13.2071C6.42085 13.3946 6.14954 13.5 5.86664 13.5H2.66664C2.38374 13.5 2.11243 13.3946 1.91239 13.2071C1.71236 13.0196 1.59998 12.7652 1.59998 12.5L1.59998 8.5ZM1.59998 8.5L1.59998 5C1.59998 4.07174 1.99331 3.1815 2.69344 2.52513C3.39358 1.86875 4.34317 1.5 5.33331 1.5M9.06664 8.5L13.3333 8.5C13.6162 8.5 13.8875 8.60536 14.0876 8.79289C14.2876 8.98043 14.4 9.23478 14.4 9.5V12.5C14.4 12.7652 14.2876 13.0196 14.0876 13.2071C13.8875 13.3946 13.6162 13.5 13.3333 13.5H10.1333C9.85041 13.5 9.5791 13.3946 9.37906 13.2071C9.17902 13.0196 9.06664 12.7652 9.06664 12.5V8.5ZM9.06664 8.5V5C9.06664 4.07174 9.45998 3.1815 10.1601 2.52513C10.8602 1.86875 11.8098 1.5 12.8 1.5" stroke="black"/>
</svg>
