<svg width="15" height="27" viewBox="0 0 15 27" fill="none" xmlns="http://www.w3.org/2000/svg">
<path d="M7.49996 23.625C7.03329 23.625 6.66663 23.2537 6.66663 22.7812V7.59375C6.66663 7.12125 7.03329 6.75 7.49996 6.75C7.96663 6.75 8.33329 7.12125 8.33329 7.59375V22.7812C8.33329 23.2537 7.96663 23.625 7.49996 23.625Z" fill="black"/>
<path d="M13.3333 12.6562C13.224 12.6576 13.1157 12.6358 13.0152 12.5922C12.9147 12.5486 12.8244 12.4842 12.75 12.4031L7.49998 7.0875L2.24998 12.4031C1.91665 12.7406 1.39998 12.7406 1.06665 12.4031C0.733317 12.0656 0.733317 11.5425 1.06665 11.205L6.89998 5.29875C7.23332 4.96125 7.74998 4.96125 8.08332 5.29875L13.9167 11.205C14.25 11.5425 14.25 12.0656 13.9167 12.4031C13.75 12.5719 13.5333 12.6562 13.3333 12.6562Z" fill="black"/>
</svg>
