<svg width="16" height="15" viewBox="0 0 16 15" fill="none" xmlns="http://www.w3.org/2000/svg">
<path d="M14.4 6.5H10.1334C9.85046 6.5 9.57915 6.39464 9.37911 6.20711C9.17907 6.01957 9.06669 5.76522 9.06669 5.5V2.5C9.06669 2.23478 9.17907 1.98043 9.37911 1.79289C9.57915 1.60536 9.85046 1.5 10.1334 1.5H13.3334C13.6163 1.5 13.8876 1.60536 14.0876 1.79289C14.2876 1.98043 14.4 2.23478 14.4 2.5V6.5ZM14.4 6.5V10C14.4 10.9283 14.0067 11.8185 13.3066 12.4749C12.6064 13.1313 11.6568 13.5 10.6667 13.5M6.93336 6.5H2.66669C2.38379 6.5 2.11248 6.39464 1.91244 6.20711C1.7124 6.01957 1.60002 5.76522 1.60002 5.5V2.5C1.60002 2.23478 1.7124 1.98043 1.91244 1.79289C2.11248 1.60536 2.38379 1.5 2.66669 1.5H5.86669C6.14959 1.5 6.4209 1.60536 6.62094 1.79289C6.82098 1.98043 6.93336 2.23478 6.93336 2.5V6.5ZM6.93336 6.5V10C6.93336 10.9283 6.54002 11.8185 5.83989 12.4749C5.13975 13.1313 4.19017 13.5 3.20002 13.5" stroke="black"/>
</svg>
