<svg width="40" height="40" viewBox="0 0 21 21" fill="none" xmlns="http://www.w3.org/2000/svg">
<path d="M10.5 0C4.70156 0 0 4.70156 0 10.5C0 16.2984 4.70156 21 10.5 21C16.2984 21 21 16.2984 21 10.5C21 4.70156 16.2984 0 10.5 0ZM10.5 19.2188C5.68594 19.2188 1.78125 15.3141 1.78125 10.5C1.78125 5.68594 5.68594 1.78125 10.5 1.78125C15.3141 1.78125 19.2188 5.68594 19.2188 10.5C19.2188 15.3141 15.3141 19.2188 10.5 19.2188ZM11.618 9.95625L11.0227 9.81797V6.67031C11.9133 6.79219 12.4641 7.35 12.5578 8.03437C12.5695 8.12812 12.6492 8.19609 12.743 8.19609H13.7953C13.9055 8.19609 13.9922 8.1 13.9828 7.98984C13.8398 6.52969 12.6375 5.59219 11.032 5.43047V4.66406C11.032 4.56094 10.9477 4.47656 10.8445 4.47656H10.1859C10.0828 4.47656 9.99844 4.56094 9.99844 4.66406V5.4375C8.33906 5.59922 7.04062 6.51562 7.04062 8.22656C7.04062 9.81094 8.20781 10.575 9.43359 10.868L10.0125 11.0156V14.3602C8.97656 14.2219 8.39531 13.6688 8.27578 12.9234C8.26172 12.8344 8.18203 12.7687 8.09063 12.7687H7.00781C6.89766 12.7687 6.81094 12.8625 6.82031 12.9727C6.92578 14.2617 7.90313 15.4477 9.98906 15.6V16.3359C9.98906 16.4391 10.0734 16.5234 10.1766 16.5234H10.8422C10.9453 16.5234 11.0297 16.4391 11.0297 16.3336L11.025 15.5906C12.8602 15.4289 14.1727 14.4469 14.1727 12.6844C14.1703 11.0578 13.1367 10.3312 11.618 9.95625ZM10.0102 9.57656C9.87891 9.53906 9.76875 9.50391 9.65859 9.45938C8.86641 9.17344 8.49844 8.71172 8.49844 8.11641C8.49844 7.26562 9.14297 6.78047 10.0102 6.67031V9.57656ZM11.0227 14.3672V11.2336C11.0953 11.2547 11.1609 11.2711 11.2289 11.2852C12.3375 11.6227 12.7102 12.0914 12.7102 12.8109C12.7102 13.7273 12.0211 14.2781 11.0227 14.3672Z" fill="black"/>
</svg>
